<?xml version="1.0" standalone="no"?>
<!DOCTYPE svg PUBLIC "-//W3C//DTD SVG 20010904//EN"
 "http://www.w3.org/TR/2001/REC-SVG-20010904/DTD/svg10.dtd">
<svg version="1.0" xmlns="http://www.w3.org/2000/svg"
 width="1164.000000pt" height="655.000000pt" viewBox="0 0 1164.000000 655.000000"
 preserveAspectRatio="xMidYMid meet">
<g transform="translate(0.000000,655.000000) scale(0.100000,-0.100000)" fill="none">
              <animate
                  dur="2s"
                  attributeName="fill"
                  fill="freeze"
                  begin="2s"
                  from="white"
                  to="black"
              />
<path stroke="black" stroke-width="5" d="M3660 5604 c-14 -2 -59 -9 -100 -15 -41 -6 -86 -17 -100 -24 -14 -7
-40 -15 -58 -18 -19 -4 -48 -13 -65 -21 -18 -8 -66 -28 -107 -44 -113 -45
-282 -128 -405 -200 -60 -36 -141 -83 -180 -106 -61 -35 -231 -151 -245 -166
-3 -3 -34 -28 -69 -55 -181 -143 -315 -257 -390 -334 -218 -223 -296 -304
-387 -407 -138 -155 -143 -160 -212 -249 -34 -44 -81 -104 -104 -133 -24 -30
-54 -71 -68 -92 -14 -21 -50 -72 -82 -113 -102 -135 -154 -225 -268 -461 -100
-210 -131 -301 -155 -466 -20 -136 -19 -173 10 -230 54 -106 136 -159 246
-160 103 0 163 16 279 74 186 93 334 204 660 495 99 88 175 149 178 142 1 -4
-14 -43 -34 -87 -55 -121 -64 -158 -64 -278 0 -115 12 -169 44 -198 23 -22 76
-32 123 -25 105 17 304 164 478 352 144 156 158 171 283 300 59 61 123 129
142 153 41 50 61 58 97 38 40 -21 91 -36 124 -36 16 0 29 -4 29 -8 0 -11 -36
-59 -120 -162 -77 -96 -170 -276 -177 -346 -5 -49 -4 -52 33 -82 21 -18 52
-34 69 -38 37 -7 126 16 192 49 55 29 217 135 248 164 35 33 118 93 127 93 6
0 7 -17 3 -39 -10 -60 22 -124 74 -151 75 -38 117 -37 209 5 45 21 82 41 82
45 0 4 12 12 27 19 41 19 122 84 123 99 0 8 -29 -7 -67 -33 -110 -77 -217
-113 -285 -95 -100 28 -117 112 -43 225 28 43 108 138 193 228 53 56 72 84 70
100 -5 37 -36 32 -80 -15 -217 -231 -463 -453 -576 -521 -114 -68 -196 -101
-254 -101 -31 -1 -60 3 -64 7 -18 18 -4 85 31 157 33 67 119 207 135 220 4 3
21 26 38 52 45 66 112 130 192 184 54 36 70 52 70 70 0 36 -54 33 -107 -6 -48
-36 -152 -64 -199 -55 -19 3 -46 17 -61 29 l-28 24 24 42 c19 34 21 46 12 66
-14 32 -63 33 -85 2 -18 -25 -21 -68 -6 -68 22 0 7 -23 -67 -108 -122 -137
-151 -169 -259 -282 -56 -58 -119 -125 -139 -150 -83 -98 -205 -207 -286 -255
-169 -100 -243 -125 -275 -94 -21 22 -37 125 -30 195 8 83 34 152 111 307 74
145 132 219 274 344 47 42 113 101 146 132 33 31 94 86 135 121 140 121 175
154 304 284 150 152 285 310 327 381 16 28 37 76 46 107 13 48 21 59 52 75
104 53 258 153 440 285 100 73 317 308 383 414 45 72 61 131 56 199 -7 79 -25
110 -96 161 -63 45 -73 50 -152 71 -53 13 -318 26 -370 17z m310 -55 c151 -38
242 -92 258 -152 22 -80 -35 -224 -137 -347 -55 -66 -206 -216 -250 -248 -13
-9 -31 -24 -40 -32 -25 -24 -99 -77 -176 -126 -67 -43 -226 -124 -244 -124 -4
0 -11 27 -14 59 -8 78 -33 127 -73 146 -40 19 -62 19 -105 1 -50 -21 -173
-149 -257 -268 -26 -37 -52 -68 -58 -68 -20 0 -86 31 -138 64 -40 26 -58 46
-83 97 -18 35 -35 80 -38 99 -11 61 -16 70 -37 70 -18 0 -20 -4 -15 -42 9 -69
60 -189 94 -224 18 -18 64 -52 103 -75 38 -22 70 -45 70 -49 0 -4 -7 -13 -15
-20 -8 -7 -15 -17 -15 -23 0 -6 -7 -19 -17 -29 -9 -10 -21 -27 -27 -37 -6 -10
-74 -113 -152 -227 -78 -115 -149 -223 -158 -239 -52 -92 -66 -116 -108 -180
-25 -38 -75 -126 -110 -195 -117 -227 -116 -226 -224 -311 -43 -35 -81 -66
-84 -69 -3 -3 -34 -30 -70 -60 -36 -30 -66 -58 -68 -61 -1 -3 -37 -33 -79 -65
-43 -32 -94 -76 -116 -97 -94 -92 -398 -287 -503 -323 -101 -34 -261 -4 -316
60 -46 53 -51 75 -45 191 7 139 39 257 115 425 13 30 31 71 39 90 48 113 194
350 305 493 29 37 67 88 83 112 48 70 178 239 192 250 7 6 23 24 35 41 79 107
519 564 659 684 216 184 347 286 447 348 24 15 65 41 92 59 126 84 438 248
548 288 37 14 76 30 87 35 26 13 173 60 205 66 218 39 324 42 440 13z m-679
-869 c30 -16 49 -64 49 -123 0 -66 -17 -84 -110 -121 -80 -31 -127 -42 -207
-51 -53 -6 -63 -5 -63 8 0 9 5 19 10 22 6 4 19 24 30 45 27 52 134 166 189
202 48 30 71 34 102 18z m5 -300 c-6 -32 -76 -139 -154 -233 -52 -63 -486
-478 -597 -570 -38 -32 -109 -97 -157 -145 -48 -47 -90 -84 -93 -81 -6 7 32
82 85 169 21 36 51 85 65 110 66 117 199 321 367 565 87 126 82 122 183 135
87 10 236 48 272 69 29 17 36 13 29 -19z M9840 5489 c-36 -12 -82 -34 -102 -50 -20 -16 -40 -29 -43 -29 -38 0
-315 -279 -468 -472 -21 -26 -43 -53 -50 -60 -7 -7 -23 -33 -36 -58 -14 -25
-61 -103 -106 -175 -45 -71 -96 -157 -114 -190 -38 -69 -123 -218 -127 -224
-3 -3 -122 -39 -224 -67 -32 -9 -121 -18 -216 -21 -230 -8 -320 13 -453 106
-55 38 -81 66 -156 166 -8 10 -24 42 -34 70 -51 137 -51 256 0 307 l28 29 -25
9 c-14 6 -29 10 -34 10 -37 0 -66 -221 -39 -303 54 -168 180 -319 320 -380 62
-28 165 -53 260 -62 110 -12 355 22 522 71 25 8 22 -8 -27 -109 -24 -51 -47
-103 -51 -117 -4 -14 -48 -107 -96 -207 -49 -100 -89 -184 -89 -188 0 -3 -20
-49 -45 -102 -25 -52 -51 -114 -59 -137 -8 -22 -37 -93 -65 -156 -28 -63 -51
-118 -51 -123 0 -4 -11 -33 -25 -63 -14 -30 -25 -58 -25 -63 0 -5 -12 -35 -26
-67 -70 -161 -79 -174 -161 -240 -107 -88 -215 -180 -252 -214 -9 -8 -45 -37
-81 -65 -140 -107 -212 -171 -353 -311 -246 -245 -336 -344 -562 -614 -110
-132 -130 -156 -150 -185 -11 -15 -29 -39 -40 -54 -73 -93 -181 -265 -208
-331 -65 -158 -61 -265 18 -399 39 -65 52 -79 120 -117 46 -27 58 -29 155 -29
76 0 120 5 160 19 62 21 168 72 185 90 6 6 36 31 66 56 88 73 182 171 231 240
64 91 168 264 202 335 69 149 99 211 109 230 6 11 21 49 35 85 46 125 54 145
78 197 13 30 24 56 24 59 0 3 27 76 61 162 97 252 99 256 99 278 0 12 6 27 14
33 7 6 16 26 20 44 7 34 105 302 138 377 11 25 24 56 30 70 6 14 15 34 21 45
6 11 17 32 24 47 8 15 37 46 66 70 28 24 63 54 78 68 14 14 73 68 130 120 57
52 118 110 135 128 37 38 49 40 69 9 16 -25 73 -47 118 -47 44 0 152 46 233
100 43 27 78 49 80 48 1 -2 -13 -39 -32 -83 -18 -44 -33 -97 -34 -118 0 -44
26 -96 50 -98 68 -7 110 11 180 78 19 18 37 33 41 33 13 0 122 153 156 221 19
38 40 69 45 69 6 0 21 -11 34 -25 13 -14 32 -25 44 -25 25 0 25 -1 0 -50 -31
-61 -27 -102 15 -139 50 -44 112 -43 242 4 54 19 112 35 130 35 30 0 31 -1 20
-29 -8 -23 -8 -33 3 -46 26 -32 52 -14 81 57 41 101 68 129 158 162 79 29 135
42 233 56 89 13 110 19 103 30 -18 29 -225 16 -323 -19 -57 -21 -154 -85 -196
-130 -20 -20 -39 -31 -58 -31 -16 0 -61 -9 -101 -21 -39 -12 -94 -28 -122 -35
-63 -19 -110 -11 -131 22 -16 23 -15 27 5 68 16 30 41 55 87 85 92 61 117 109
63 126 -20 7 -89 -21 -89 -36 0 -19 -46 -49 -74 -49 -42 0 -96 34 -96 61 0 16
-5 20 -27 17 -23 -3 -31 -13 -58 -83 -63 -160 -126 -241 -240 -309 -72 -43
-115 -48 -115 -13 0 59 108 300 162 360 99 112 132 166 114 185 -4 3 -68 -58
-144 -136 -75 -78 -140 -142 -144 -142 -5 0 -34 -20 -65 -44 -121 -91 -278
-119 -303 -52 -10 29 2 58 46 103 20 21 55 63 78 93 22 30 48 62 56 70 8 9 42
46 76 81 70 75 138 165 148 196 5 16 2 25 -14 33 -21 11 -86 4 -96 -11 -3 -5
-15 -9 -28 -9 -13 0 -40 -18 -67 -46 -24 -25 -64 -65 -88 -88 -89 -85 -187
-261 -198 -359 -6 -48 -11 -57 -73 -117 -96 -93 -167 -158 -230 -210 -30 -25
-60 -52 -67 -60 -20 -26 -26 -2 -9 34 9 19 16 41 16 49 0 9 4 18 9 21 4 3 16
27 26 53 10 26 23 62 30 78 7 17 25 64 41 105 15 41 43 109 61 150 19 41 38
84 43 95 35 81 119 263 150 327 21 42 41 86 45 98 7 23 157 339 180 380 17 31
41 45 190 105 66 26 127 53 135 60 8 7 47 28 85 47 67 34 119 62 177 97 26 16
245 165 325 222 51 36 127 120 228 254 100 130 110 148 140 236 18 55 25 95
25 154 0 91 -18 133 -69 160 -42 21 -142 18 -221 -6z m233 -51 c13 -16 17 -39
17 -112 0 -143 -27 -210 -135 -341 -36 -44 -90 -110 -119 -146 -92 -112 -140
-149 -413 -317 -73 -45 -165 -98 -204 -117 -40 -19 -80 -42 -89 -50 -9 -8 -21
-15 -26 -15 -5 0 -48 -16 -94 -36 -85 -36 -130 -51 -130 -42 0 7 72 136 103
185 15 24 27 45 27 47 0 2 30 53 66 113 37 59 76 124 87 143 12 19 25 37 29
38 4 2 8 8 8 12 0 32 258 338 414 493 72 71 208 157 251 158 16 1 41 5 55 9
42 15 133 2 153 -22z m-1063 -1835 c0 -3 -11 -21 -25 -39 -14 -18 -25 -37 -25
-43 0 -6 -7 -11 -15 -11 -8 0 -15 -6 -15 -13 0 -7 -8 -19 -17 -28 -18 -15 -57
-60 -123 -140 -68 -83 -93 -110 -97 -105 -5 4 45 122 59 141 4 6 35 47 67 92
33 45 69 87 80 93 12 6 21 17 21 24 0 7 10 18 23 24 25 12 67 15 67 5z m-990
-1184 c-23 -57 -45 -112 -50 -121 -6 -10 -10 -24 -10 -32 0 -12 -25 -82 -51
-141 -5 -11 -18 -47 -29 -80 -12 -33 -27 -71 -35 -85 -7 -14 -21 -54 -30 -89
-9 -36 -23 -74 -31 -85 -8 -11 -14 -27 -14 -36 0 -8 -11 -37 -25 -65 -13 -27
-25 -56 -25 -63 0 -7 -4 -20 -9 -30 -5 -9 -24 -55 -41 -102 -18 -47 -41 -106
-51 -133 -33 -81 -182 -382 -191 -385 -4 -2 -8 -9 -8 -16 0 -7 -19 -41 -42
-75 -24 -35 -60 -91 -81 -125 -21 -33 -42 -63 -46 -66 -4 -3 -18 -21 -31 -40
-98 -141 -332 -295 -488 -320 -121 -20 -165 -12 -239 47 -91 72 -139 250 -98
360 38 105 162 306 238 388 10 11 25 32 33 48 8 15 18 27 22 27 4 0 18 17 32
37 14 21 52 69 85 108 33 39 82 97 110 130 27 33 52 62 55 65 3 3 25 30 50 60
59 72 54 66 216 231 197 201 281 280 429 400 28 23 61 51 75 63 25 21 107 87
144 116 11 8 29 25 41 37 44 45 130 104 133 90 1 -7 -16 -60 -38 -118z
M5804 4829 c-198 -15 -407 -156 -637 -427 -39 -46 -83 -97 -98 -113
-16 -17 -31 -39 -34 -50 -4 -10 -10 -19 -14 -19 -16 0 -221 -289 -221 -311 0
-4 -30 -5 -67 -2 -110 8 -206 66 -244 148 -22 48 -24 87 -4 124 20 40 112 120
163 143 41 18 55 42 30 51 -7 2 -35 -2 -62 -10 -37 -11 -64 -30 -110 -77 -64
-65 -86 -112 -86 -184 0 -119 101 -216 253 -242 53 -10 67 -16 67 -30 0 -10
-7 -23 -15 -30 -8 -7 -15 -16 -15 -20 0 -4 -29 -56 -65 -115 -36 -58 -78 -132
-94 -163 -15 -31 -48 -93 -73 -137 -24 -44 -69 -127 -98 -185 -253 -499 -278
-556 -259 -591 24 -45 83 -16 203 101 110 106 145 136 214 184 l52 36 0 -133
c0 -161 5 -173 75 -170 71 2 123 41 344 251 36 34 69 62 74 62 4 0 21 15 38
32 40 44 37 30 -15 -65 -25 -45 -47 -103 -51 -128 -6 -39 -3 -50 17 -74 19
-21 35 -29 74 -32 42 -4 55 0 96 27 75 50 234 235 281 326 52 102 18 98 -53
-8 -102 -150 -254 -285 -314 -276 -18 3 -21 10 -21 54 1 28 9 71 20 95 52 121
66 149 104 206 45 67 49 84 26 103 -19 16 -43 6 -54 -22 -9 -23 -264 -273
-311 -305 -14 -10 -41 -33 -60 -52 -70 -68 -157 -121 -199 -121 -15 0 -17 17
-16 148 l0 147 -28 -3 c-15 -2 -50 -16 -78 -33 -50 -29 -71 -47 -203 -174 -74
-71 -113 -101 -122 -92 -6 5 78 188 143 312 20 39 76 149 126 245 49 96 101
195 117 220 15 25 43 74 62 110 90 167 145 254 171 270 15 10 63 23 105 29 90
14 288 79 370 121 31 17 62 30 69 30 6 0 18 6 25 13 7 7 42 27 78 46 71 35
192 111 289 179 92 65 263 239 289 294 36 78 25 195 -21 239 -50 47 -108 59
-233 48z m156 -56 c13 -10 38 -32 57 -49 79 -76 22 -192 -177 -363 -43 -37
-177 -135 -222 -162 -35 -21 -271 -147 -338 -179 -104 -51 -352 -119 -386
-106 -13 5 -13 10 5 35 12 16 21 32 21 36 0 16 160 235 200 275 8 8 27 31 42
52 15 20 33 42 40 50 7 7 31 33 52 58 68 78 239 230 300 267 33 20 94 52 135
70 66 29 87 33 161 33 66 0 91 -4 110 -17z
M5571 3811 c-29 -19 11 -60 45 -47 14 6 15 9 2 28 -18 26 -28 31 -47
19z
M5716 3287 c-9 -13 -23 -47 -31 -75 -9 -28 -20 -54 -25 -57 -5 -3
-20 -29 -35 -58 -14 -28 -34 -65 -43 -82 -10 -16 -29 -63 -42 -104 -28 -88
-21 -124 24 -129 36 -4 98 54 158 148 23 36 43 67 44 68 1 2 12 -6 24 -18 18
-18 30 -21 78 -17 32 2 67 8 80 12 17 6 22 4 22 -11 0 -27 57 -139 86 -167 39
-39 93 -61 155 -61 46 -1 63 4 97 28 46 31 56 53 20 41 -53 -18 -132 -16 -164
3 -90 57 -138 169 -95 222 109 135 121 152 121 184 0 36 -16 57 -40 52 -56 -9
-94 -48 -120 -126 -13 -37 -26 -51 -71 -78 -90 -54 -122 -55 -140 -2 -14 39
-46 41 -55 3 -11 -47 -145 -206 -160 -190 -11 11 30 125 91 254 54 114 70 173
48 180 -6 2 -19 -7 -27 -20z m434 -81 c0 -13 -30 -49 -65 -76 -17 -13 -18 -13
-10 0 12 22 66 90 71 90 2 0 4 -6 4 -14z"/>
</g>
</svg>
